<svg width="667" height="667" viewBox="0 0 667 667" fill="none" xmlns="http://www.w3.org/2000/svg">
<path d="M119.43 381.118C119.088 380.657 118.755 380.193 118.411 379.734C114.536 374.585 110.424 369.616 106.086 364.856C106.194 355.264 105.965 318.989 96.2452 320.857C87.2702 322.581 98.9848 351.301 103.983 362.621C102.089 360.605 100.159 358.626 98.1822 356.692C91.6244 348.181 69.5775 320.768 63.1144 328.19C57.1275 335.065 83.3311 350.238 94.8468 356.432C96.9863 358.473 99.0863 360.552 101.129 362.688C90.0302 357.144 62.3592 344.336 59.8994 353.088C57.2322 362.58 93.4135 364.586 103.245 364.956C108.35 370.465 113.146 376.257 117.627 382.293C107.687 375.996 80.1744 359.557 76.789 368.237C73.1619 377.536 109.935 383.097 119.137 384.337C123.974 391.013 128.43 397.969 132.516 405.132C123.013 397.078 99.2759 378.153 94.8144 386.054C89.9712 394.63 124.561 405.172 134.064 407.881C134.723 409.072 135.38 410.261 136.017 411.464C139.255 417.558 142.247 423.802 144.997 430.152C136.384 421.71 113.386 400.386 108.304 408.077C102.848 416.33 136.953 429.346 146.06 432.642C150.133 442.321 153.603 452.254 156.419 462.353C149.061 452.772 129.312 428.481 123.206 435.377C116.647 442.784 148.596 460.458 157.153 465C157.267 465.425 157.396 465.849 157.507 466.274C158.409 469.737 159.288 473.23 159.901 476.758C160.137 478.109 162.241 477.785 162.005 476.432C161.395 472.925 160.609 469.434 159.715 465.965C164.08 457.186 179.477 424.742 169.963 422.2C161.304 419.888 159.245 449.608 158.76 462.42C157.136 456.644 155.235 450.937 153.245 445.346C151.82 441.342 150.292 437.372 148.677 433.434C151.68 424.422 162.597 389.664 152.752 388.473C143.763 387.386 146.027 417.706 147.337 430.24C144.189 422.845 140.699 415.592 136.861 408.529C139.227 399.332 147.689 363.89 137.783 363.392C128.644 362.93 133.214 393.677 135.372 405.829C131.19 398.358 126.614 391.108 121.638 384.145C122.72 374.145 125.86 338.816 116.112 339.714C107.241 340.53 115.43 368.806 119.43 381.118Z" fill="#F3654E"/>
<path d="M579.24 322.684C579.48 322.164 579.731 321.648 579.968 321.128C582.639 315.262 585.04 309.277 587.149 303.192C595.628 298.702 627.383 281.169 621.099 273.524C615.297 266.464 595.664 290.477 588.108 300.276C588.973 297.649 589.791 295.008 590.544 292.348C594.888 282.52 608.436 250.054 598.828 247.922C589.927 245.948 589.119 276.218 589.18 289.293C588.409 292.148 587.585 294.986 586.687 297.801C586.251 285.402 584.284 254.974 575.419 256.996C565.807 259.188 581.331 291.93 585.703 300.744C583.305 307.861 580.505 314.841 577.347 321.661C578.128 309.92 579.423 277.897 570.181 279.07C560.28 280.328 572.964 315.289 576.271 323.965C572.719 331.404 568.737 338.64 564.397 345.653C566.931 333.457 572.213 303.562 563.141 303.418C553.295 303.261 560.561 338.684 562.72 348.326C561.988 349.473 561.257 350.62 560.508 351.753C556.699 357.512 552.644 363.121 548.38 368.572C551.68 356.973 559.424 326.581 550.241 325.79C540.383 324.941 545.245 361.121 546.7 370.696C540.144 378.898 533.076 386.693 525.551 393.99C530.451 382.95 542.355 353.994 533.377 351.925C523.739 349.701 523.476 386.213 523.576 395.901C523.255 396.204 522.945 396.52 522.624 396.82C520.015 399.268 517.364 401.708 514.559 403.933C513.485 404.785 514.776 406.478 515.852 405.625C518.64 403.414 521.331 401.054 523.952 398.612C533.749 398.252 569.607 396.277 567.295 386.704C565.189 377.992 538.096 390.384 526.609 396.08C530.908 391.894 535.012 387.496 538.972 383.077C541.808 379.913 544.568 376.673 547.253 373.372C556.605 371.705 592.357 364.689 588.697 355.47C585.359 347.054 559.804 363.529 549.421 370.669C554.413 364.37 559.117 357.838 563.487 351.093C572.696 348.777 607.875 339.277 603.581 330.337C599.619 322.088 574.792 340.793 565.148 348.496C569.713 341.252 573.896 333.768 577.635 326.07C586.936 322.242 619.472 308.121 614.027 299.986C609.071 292.584 588.143 313.286 579.24 322.684Z" fill="#F3654E"/>
<path d="M190.145 350.502C190.145 350.502 193.644 343.062 195.429 333.241C195.131 330.161 194.704 327.169 194.139 324.272C193.656 321.74 193.053 319.288 192.393 316.876C190.628 319.897 188.413 323.049 185.937 325.089C185.937 325.089 188.711 319.198 190.58 310.982C188.661 305.425 186.271 300.193 183.465 295.246C182.56 298.226 181.356 301.252 179.767 303.524C179.767 303.524 180.748 298.153 180.755 290.756C180.217 289.913 179.688 289.062 179.124 288.236C175.997 283.677 172.472 279.39 168.549 275.378C168.229 278.757 167.593 282.338 166.364 285.117C166.364 285.117 166.353 279.436 164.972 271.914C161 268.266 156.633 264.889 151.811 261.826C151.949 265.085 151.819 268.517 151.064 271.318C151.064 271.318 150.317 266.286 148.196 259.608C143.891 257.118 139.217 254.881 134.141 252.921C134.72 255.62 135.089 258.389 134.957 260.821C134.957 260.821 133.563 256.945 130.833 251.704C127.163 250.429 123.245 249.325 119.065 248.401C114.812 247.462 110.321 246.686 105.079 246.428C103.443 251.416 102.559 255.886 101.914 260.193C101.279 264.426 100.907 268.48 100.782 272.362C104.698 276.789 107.819 279.478 107.819 279.478C105.502 278.732 103.048 277.394 100.735 275.889C100.748 281.329 101.162 286.494 101.946 291.405C107.421 295.778 111.852 298.277 111.852 298.277C108.968 297.978 105.715 296.87 102.722 295.576C103.856 301.174 105.446 306.461 107.429 311.476C113.957 315.458 119.258 317.504 119.258 317.504C116.223 317.654 112.651 316.968 109.382 316.056C111.723 321.156 114.464 325.981 117.601 330.533C118.171 331.356 118.775 332.154 119.368 332.96C126.279 335.601 131.645 336.608 131.645 336.608C128.955 337.278 125.698 337.318 122.591 337.097C126.206 341.488 130.235 345.593 134.737 349.376C143.079 350.572 149.571 350.09 149.571 350.09C146.779 351.672 143.044 352.612 139.589 353.178C141.605 354.658 143.679 356.098 145.871 357.456C148.373 359.022 151.013 360.492 153.783 361.873C163.592 363.722 171.792 363.121 171.792 363.121C169.352 364.502 166.189 365.393 163.125 365.976C163.997 366.309 164.879 366.636 165.775 366.952C169.496 368.256 173.464 369.392 177.708 370.337C181.951 371.284 186.425 372.07 191.647 372.344C193.261 367.37 194.129 362.91 194.764 358.61C195.401 354.309 195.763 350.197 195.877 346.256C195.901 345.308 195.913 344.366 195.915 343.433C194.273 346.085 192.309 348.72 190.145 350.502Z" fill="#019A35"/>
<mask id="mask0_754_102" style="mask-type:luminance" maskUnits="userSpaceOnUse" x="100" y="246" width="96" height="127">
<path d="M190.145 350.502C190.145 350.502 193.644 343.062 195.429 333.241C195.131 330.161 194.704 327.169 194.139 324.272C193.656 321.74 193.053 319.288 192.393 316.876C190.628 319.897 188.413 323.049 185.937 325.089C185.937 325.089 188.711 319.198 190.58 310.982C188.661 305.425 186.271 300.193 183.465 295.246C182.56 298.226 181.356 301.252 179.767 303.524C179.767 303.524 180.748 298.153 180.755 290.756C180.217 289.913 179.688 289.062 179.124 288.236C175.997 283.677 172.472 279.39 168.549 275.378C168.229 278.757 167.593 282.338 166.364 285.117C166.364 285.117 166.353 279.436 164.972 271.914C161 268.266 156.633 264.889 151.811 261.826C151.949 265.085 151.819 268.517 151.064 271.318C151.064 271.318 150.317 266.286 148.196 259.608C143.891 257.118 139.217 254.881 134.141 252.921C134.72 255.62 135.089 258.389 134.957 260.821C134.957 260.821 133.563 256.945 130.833 251.704C127.163 250.429 123.245 249.325 119.065 248.401C114.812 247.462 110.321 246.686 105.079 246.428C103.443 251.416 102.559 255.886 101.914 260.193C101.279 264.426 100.907 268.48 100.782 272.362C104.698 276.789 107.819 279.478 107.819 279.478C105.502 278.732 103.048 277.394 100.735 275.889C100.748 281.329 101.162 286.494 101.946 291.405C107.421 295.778 111.852 298.277 111.852 298.277C108.968 297.978 105.715 296.87 102.722 295.576C103.856 301.174 105.446 306.461 107.429 311.476C113.957 315.458 119.258 317.504 119.258 317.504C116.223 317.654 112.651 316.968 109.382 316.056C111.723 321.156 114.464 325.981 117.601 330.533C118.171 331.356 118.775 332.154 119.368 332.96C126.279 335.601 131.645 336.608 131.645 336.608C128.955 337.278 125.698 337.318 122.591 337.097C126.206 341.488 130.235 345.593 134.737 349.376C143.079 350.572 149.571 350.09 149.571 350.09C146.779 351.672 143.044 352.612 139.589 353.178C141.605 354.658 143.679 356.098 145.871 357.456C148.373 359.022 151.013 360.492 153.783 361.873C163.592 363.722 171.792 363.121 171.792 363.121C169.352 364.502 166.189 365.393 163.125 365.976C163.997 366.309 164.879 366.636 165.775 366.952C169.496 368.256 173.464 369.392 177.708 370.337C181.951 371.284 186.425 372.07 191.647 372.344C193.261 367.37 194.129 362.91 194.764 358.61C195.401 354.309 195.763 350.197 195.877 346.256C195.901 345.308 195.913 344.366 195.915 343.433C194.273 346.085 192.309 348.72 190.145 350.502Z" fill="white"/>
</mask>
<g mask="url(#mask0_754_102)">
<path d="M176.976 277.475L175.612 277.319C175.601 277.557 174.445 301.196 158.695 323.237L146.864 306.029C163.08 283.476 161.056 254.495 161.033 254.203L159.672 254.217C159.693 254.503 161.655 282.667 146.003 304.777L135.477 289.468C151.629 266.748 136.353 234.708 136.196 234.387L134.983 234.943C135.135 235.256 149.857 266.177 134.613 288.209L123.328 271.796C129.262 249.232 113.866 220.781 113.708 220.496L112.529 221.12C112.68 221.396 127.298 248.431 122.27 270.256L99.0233 236.443L97.9244 237.197L121.172 271.012C98.992 267.891 78.9848 244.561 78.781 244.321L77.7764 245.199C77.9873 245.448 99.0378 270.012 122.229 272.551L133.515 288.965C107.485 295.309 83.8858 270.489 83.6468 270.235L82.693 271.169C82.9378 271.432 107.383 297.168 134.38 290.223L144.904 305.532C118.672 312.224 93.0618 300.312 92.8025 300.191L92.3014 301.456C92.5654 301.583 118.901 313.849 145.765 306.785L157.596 323.992C131.395 330.8 108.891 323.42 108.664 323.344L108.321 324.676C108.553 324.752 131.671 332.351 158.456 325.243L167.356 338.188C141.167 345.113 121.752 342.267 121.557 342.237L121.445 343.624C121.644 343.655 141.527 346.583 168.213 339.436L177.92 353.555C155.977 359.328 139.72 356.961 139.556 356.935L139.444 358.321C139.612 358.349 156.335 360.803 178.78 354.805L186.867 366.569C173.089 370.24 162.963 368.892 162.86 368.877L162.764 370.267C163.197 370.328 173.459 371.707 187.725 367.816L203.485 390.741L204.584 389.985L188.824 367.061C197.565 355.135 199.951 345.06 200.049 344.633L198.719 344.224C198.695 344.325 196.328 354.263 187.967 365.813L179.879 354.049C193.515 335.241 197.213 318.749 197.248 318.583L195.912 318.189C195.877 318.352 192.267 334.379 179.019 352.799L169.312 338.681C185.541 316.321 189.927 296.709 189.969 296.513L188.635 296.121C188.592 296.313 184.297 315.461 168.455 337.432L159.555 324.487C175.781 302.024 176.967 277.719 176.976 277.475Z" fill="#B3F9BA"/>
</g>
<path d="M171.615 332.865C169.871 332.815 168.071 332.788 166.228 332.788C165.906 332.788 165.583 332.788 165.263 332.791L159.555 324.487C165.418 316.372 169.316 308.015 171.907 300.64V332.424C171.81 332.571 171.712 332.719 171.615 332.865ZM158.695 323.237L146.864 306.029C155.998 293.327 159.344 278.585 160.523 268.079C162.059 269.321 163.542 270.6 164.972 271.915C166.348 279.407 166.364 285.073 166.364 285.117C167.594 282.339 168.23 278.757 168.55 275.379C169.703 276.557 170.822 277.761 171.907 278.988V296.169C169.454 304.199 165.395 313.861 158.695 323.237ZM146.003 304.777L135.478 289.468C142.831 279.124 143.671 266.851 142.388 256.516C144.395 257.497 146.33 258.529 148.196 259.608C150.318 266.287 151.064 271.319 151.064 271.319C151.651 269.141 151.86 266.583 151.86 264.02C151.86 263.285 151.842 262.552 151.811 261.827C154.422 263.484 156.899 265.235 159.251 267.069C158.183 277.336 155.007 292.059 146.003 304.777ZM134.614 288.209L123.328 271.796C125.22 264.603 124.944 256.809 123.685 249.524C126.166 250.183 128.548 250.909 130.834 251.704C133.563 256.945 134.958 260.821 134.958 260.821C134.975 260.488 134.984 260.149 134.984 259.805C134.984 257.635 134.64 255.252 134.142 252.921C136.492 253.829 138.756 254.796 140.938 255.82C142.304 265.909 141.67 278.012 134.614 288.209ZM122.27 270.256L105.92 246.475C110.805 246.771 115.042 247.513 119.065 248.401C120.146 248.64 121.208 248.891 122.253 249.153C123.491 256.043 123.849 263.405 122.27 270.256Z" fill="#0B8434"/>
<path d="M171.907 332.875C171.809 332.871 171.712 332.868 171.615 332.865C171.712 332.719 171.809 332.57 171.907 332.424V332.875ZM164.457 332.796L105.079 246.428C105.361 246.441 105.642 246.457 105.92 246.475L122.27 270.256C123.848 263.405 123.491 256.042 122.253 249.153C122.734 249.274 123.211 249.397 123.685 249.524C124.944 256.809 125.22 264.603 123.328 271.796L134.613 288.209C141.669 278.012 142.304 265.909 140.937 255.82C141.425 256.049 141.909 256.281 142.388 256.516C143.671 266.851 142.831 279.124 135.477 289.468L146.003 304.777C155.007 292.059 158.183 277.336 159.251 267.069C159.679 267.404 160.103 267.74 160.523 268.079C159.344 278.585 155.997 293.327 146.864 306.029L158.695 323.237C165.395 313.861 169.453 304.199 171.907 296.169V300.64C169.316 308.015 165.417 316.372 159.555 324.486L165.263 332.79C164.993 332.792 164.725 332.793 164.457 332.796Z" fill="#A3F0A1"/>
<path d="M552.741 466.92C552.741 466.92 560.945 467.449 570.737 465.513C573.493 464.106 576.121 462.612 578.609 461.025C580.79 459.646 582.85 458.189 584.853 456.692C581.393 456.156 577.649 455.249 574.844 453.693C574.844 453.693 581.341 454.116 589.672 452.845C594.139 449.024 598.132 444.882 601.706 440.46C598.602 440.709 595.345 440.696 592.649 440.05C592.649 440.05 598.005 438.996 604.893 436.293C605.479 435.482 606.076 434.678 606.64 433.853C609.734 429.27 612.432 424.421 614.728 419.301C611.468 420.242 607.903 420.962 604.865 420.836C604.865 420.836 610.148 418.744 616.64 414.704C618.58 409.67 620.123 404.37 621.205 398.761C618.224 400.085 614.981 401.221 612.1 401.544C612.1 401.544 616.509 399.006 621.944 394.585C622.685 389.666 623.053 384.5 623.017 379.058C620.717 380.585 618.276 381.944 615.966 382.712C615.966 382.712 619.063 379.993 622.939 375.533C622.78 371.652 622.371 367.601 621.699 363.373C621.016 359.073 620.09 354.61 618.412 349.638C613.172 349.942 608.688 350.758 604.444 351.736C600.272 352.696 596.362 353.836 592.704 355.141C590.022 360.408 588.663 364.297 588.663 364.297C588.508 361.866 588.855 359.093 589.408 356.39C584.349 358.394 579.696 360.673 575.413 363.201C573.352 369.898 572.649 374.936 572.649 374.936C571.869 372.142 571.709 368.71 571.817 365.452C567.024 368.557 562.688 371.974 558.748 375.656C557.433 383.19 557.472 388.872 557.472 388.872C556.22 386.104 555.55 382.528 555.201 379.152C551.313 383.198 547.828 387.517 544.741 392.104C544.185 392.934 543.664 393.789 543.133 394.638C543.205 402.034 544.236 407.396 544.236 407.396C542.627 405.14 541.394 402.124 540.462 399.152C537.701 404.124 535.357 409.377 533.488 414.952C535.43 423.15 538.256 429.016 538.256 429.016C535.762 426.997 533.52 423.865 531.728 420.861C531.089 423.278 530.509 425.734 530.049 428.272C529.509 431.174 529.108 434.169 528.837 437.252C530.711 447.056 534.275 454.466 534.275 454.466C532.095 452.701 530.108 450.085 528.444 447.449C528.453 448.381 528.472 449.321 528.505 450.27C528.655 454.21 529.053 458.318 529.728 462.614C530.402 466.909 531.309 471.361 532.969 476.318C538.187 475.998 542.655 475.173 546.888 474.189C551.124 473.205 555.082 472.034 558.792 470.697C559.684 470.372 560.562 470.038 561.43 469.697C558.362 469.144 555.193 468.28 552.741 466.92Z" fill="#019A35"/>
<mask id="mask1_754_102" style="mask-type:luminance" maskUnits="userSpaceOnUse" x="528" y="349" width="96" height="128">
<path d="M552.741 466.92C552.741 466.92 560.945 467.449 570.737 465.513C573.493 464.106 576.121 462.612 578.609 461.025C580.79 459.646 582.85 458.189 584.853 456.692C581.393 456.156 577.649 455.249 574.844 453.693C574.844 453.693 581.341 454.116 589.672 452.845C594.139 449.024 598.132 444.882 601.706 440.46C598.602 440.709 595.345 440.696 592.649 440.05C592.649 440.05 598.005 438.996 604.893 436.293C605.479 435.482 606.076 434.678 606.64 433.853C609.734 429.27 612.432 424.421 614.728 419.301C611.468 420.242 607.903 420.962 604.865 420.836C604.865 420.836 610.148 418.744 616.64 414.704C618.58 409.67 620.123 404.37 621.205 398.761C618.224 400.085 614.981 401.221 612.1 401.544C612.1 401.544 616.509 399.006 621.944 394.585C622.685 389.666 623.053 384.5 623.017 379.058C620.717 380.585 618.276 381.944 615.966 382.712C615.966 382.712 619.063 379.993 622.939 375.533C622.78 371.652 622.371 367.601 621.699 363.373C621.016 359.073 620.09 354.61 618.412 349.638C613.172 349.942 608.688 350.758 604.444 351.736C600.272 352.696 596.362 353.836 592.704 355.141C590.022 360.408 588.663 364.297 588.663 364.297C588.508 361.866 588.855 359.093 589.408 356.39C584.349 358.394 579.696 360.673 575.413 363.201C573.352 369.898 572.649 374.936 572.649 374.936C571.869 372.142 571.709 368.71 571.817 365.452C567.024 368.557 562.688 371.974 558.748 375.656C557.433 383.19 557.472 388.872 557.472 388.872C556.22 386.104 555.55 382.528 555.201 379.152C551.313 383.198 547.828 387.517 544.741 392.104C544.185 392.934 543.664 393.789 543.133 394.638C543.205 402.034 544.236 407.396 544.236 407.396C542.627 405.14 541.394 402.124 540.462 399.152C537.701 404.124 535.357 409.377 533.488 414.952C535.43 423.15 538.256 429.016 538.256 429.016C535.762 426.997 533.52 423.865 531.728 420.861C531.089 423.278 530.509 425.734 530.049 428.272C529.509 431.174 529.108 434.169 528.837 437.252C530.711 447.056 534.275 454.466 534.275 454.466C532.095 452.701 530.108 450.085 528.444 447.449C528.453 448.381 528.472 449.321 528.505 450.27C528.655 454.21 529.053 458.318 529.728 462.614C530.402 466.909 531.309 471.361 532.969 476.318C538.187 475.998 542.655 475.173 546.888 474.189C551.124 473.205 555.082 472.034 558.792 470.697C559.684 470.372 560.562 470.038 561.43 469.697C558.362 469.144 555.193 468.28 552.741 466.92Z" fill="white"/>
</mask>
<g mask="url(#mask1_754_102)">
<path d="M615.865 427.91L615.511 426.582C615.284 426.661 592.867 434.246 566.587 427.666L578.263 410.354C605.191 417.179 631.415 404.678 631.679 404.549L631.165 403.287C630.908 403.413 605.42 415.557 579.113 409.093L589.503 393.691C616.559 400.397 640.773 374.443 641.017 374.178L640.055 373.253C639.817 373.509 616.44 398.538 590.356 392.425L601.493 375.911C624.663 373.166 645.493 348.417 645.701 348.165L644.689 347.297C644.487 347.538 624.689 371.045 602.537 374.363L625.483 340.345L624.377 339.598L601.432 373.618C596.211 351.838 610.587 324.674 610.737 324.397L609.552 323.783C609.397 324.07 594.253 352.657 600.388 375.166L589.249 391.681C573.809 369.785 588.257 338.734 588.408 338.418L587.189 337.873C587.033 338.197 572.043 370.371 588.397 392.946L578.008 408.349C562.171 386.391 563.871 358.198 563.889 357.913L562.528 357.91C562.508 358.201 560.743 387.199 577.159 409.609L565.481 426.921C549.548 405.035 548.169 381.393 548.156 381.154L546.793 381.322C546.805 381.566 548.207 405.861 564.633 428.179L555.849 441.202C539.809 419.371 535.345 400.265 535.301 400.073L533.971 400.475C534.015 400.673 538.576 420.246 555.003 442.458L545.421 456.662C532.009 438.361 528.256 422.366 528.22 422.203L526.888 422.609C526.924 422.775 530.769 439.234 544.573 457.921L536.589 469.755C528.127 458.281 525.671 448.363 525.645 448.263L524.319 448.683C524.42 449.11 526.897 459.162 535.744 471.011L520.188 494.075L521.293 494.821L536.849 471.755C551.149 475.521 561.397 474.049 561.831 473.983L561.723 472.595C561.621 472.611 551.507 474.049 537.696 470.501L545.679 458.666C568.176 464.463 584.876 461.861 585.043 461.833L584.919 460.446C584.755 460.474 568.521 462.986 546.527 457.409L556.108 443.203C582.857 450.111 602.712 447.007 602.912 446.974L602.787 445.589C602.592 445.621 583.203 448.641 556.955 441.949L565.739 428.923C592.585 435.793 615.636 427.99 615.865 427.91Z" fill="#B3F9BA"/>
</g>
<path d="M560.551 470.04V469.531C560.845 469.589 561.139 469.645 561.431 469.697C561.139 469.813 560.845 469.927 560.551 470.04Z" fill="#0B8434"/>
<path d="M570.737 465.513C572.667 464.528 574.533 463.501 576.333 462.428C577.104 461.968 577.863 461.501 578.609 461.025C578.644 461.003 578.677 460.981 578.712 460.96C580.855 459.601 582.881 458.165 584.853 456.692C582.851 458.189 580.791 459.647 578.609 461.025C576.121 462.612 573.493 464.107 570.737 465.513ZM589.672 452.845C591.641 451.16 593.519 449.413 595.308 447.608C595.788 447.124 596.261 446.636 596.729 446.143C598.473 444.305 600.131 442.411 601.707 440.46C598.132 444.883 594.139 449.024 589.672 452.845ZM604.893 436.293C605.479 435.483 606.076 434.679 606.64 433.853C607.579 432.463 608.481 431.047 609.348 429.607C609.671 429.069 609.988 428.529 610.301 427.985C611.913 425.183 613.389 422.288 614.728 419.301C612.432 424.421 609.735 429.271 606.64 433.853C606.076 434.679 605.479 435.483 604.893 436.293ZM616.64 414.704C617.339 412.891 617.987 411.043 618.579 409.159C618.741 408.644 618.899 408.125 619.052 407.605C619.899 404.744 620.619 401.799 621.205 398.761C620.123 404.371 618.58 409.671 616.64 414.704ZM621.944 394.585C622.265 392.453 622.516 390.276 622.695 388.049C622.737 387.516 622.776 386.981 622.811 386.443C622.948 384.281 623.019 382.076 623.02 379.823C623.017 384.984 622.651 389.897 621.944 394.585Z" fill="#EAF5E5"/>
<path d="M560.551 466.821V461.519C566.075 462.221 570.905 462.44 574.784 462.44C575.319 462.44 575.835 462.436 576.333 462.428C574.533 463.501 572.667 464.528 570.737 465.513C566.984 466.255 563.465 466.635 560.551 466.821ZM574.895 461.035C571.007 461.035 566.136 460.811 560.551 460.088V444.277C572.713 447.008 583.203 447.699 590.7 447.699C592.393 447.699 593.935 447.664 595.308 447.608C593.519 449.413 591.641 451.16 589.672 452.845C584.671 453.608 580.332 453.76 577.661 453.76C575.883 453.76 574.844 453.693 574.844 453.693C577.649 455.249 581.393 456.156 584.853 456.692C582.881 458.165 580.855 459.601 578.712 460.96C577.576 461.005 576.3 461.035 574.895 461.035ZM590.801 446.296C583.313 446.296 572.781 445.599 560.551 442.816V436.616L565.739 428.924C573.929 431.02 581.771 431.751 588.715 431.751C597.3 431.751 604.516 430.636 609.348 429.607C608.481 431.047 607.579 432.463 606.64 433.853C606.076 434.679 605.479 435.483 604.893 436.293C598.005 438.996 592.649 440.051 592.649 440.051C594.332 440.453 596.233 440.611 598.18 440.611C599.352 440.611 600.54 440.553 601.707 440.46C600.131 442.411 598.473 444.305 596.729 446.143C595.057 446.232 593.069 446.296 590.801 446.296ZM588.839 430.349C582.111 430.349 574.525 429.655 566.587 427.667L578.263 410.355C584.031 411.816 589.768 412.392 595.223 412.392C604.111 412.392 612.253 410.865 618.579 409.159C617.987 411.043 617.339 412.891 616.64 414.704C610.148 418.744 604.865 420.836 604.865 420.836C605.099 420.845 605.336 420.851 605.575 420.851C608.448 420.851 611.717 420.169 614.728 419.301C613.389 422.288 611.913 425.183 610.301 427.985C605.597 429.056 598.015 430.349 588.839 430.349ZM595.349 410.988C590.124 410.988 584.637 410.451 579.113 409.093L589.503 393.692C592.596 394.459 595.653 394.797 598.64 394.797C607.549 394.797 615.845 391.779 622.695 388.049C622.516 390.276 622.265 392.453 621.944 394.585C616.509 399.007 612.1 401.544 612.1 401.544C614.981 401.221 618.224 400.085 621.205 398.761C620.619 401.799 619.899 404.744 619.052 407.605C612.737 409.363 604.44 410.988 595.349 410.988ZM598.745 393.387C595.996 393.388 593.195 393.091 590.356 392.425L601.493 375.912C608.88 375.036 616.029 371.924 622.348 368.083C622.644 370.633 622.84 373.117 622.939 375.533C619.063 379.993 615.967 382.712 615.967 382.712C618.276 381.944 620.717 380.585 623.017 379.059C623.019 379.313 623.02 379.568 623.02 379.823C623.019 382.076 622.948 384.281 622.811 386.443C616.012 390.244 607.687 393.387 598.745 393.387ZM602.537 374.364L618.676 350.437C620.191 355.091 621.052 359.304 621.699 363.373C621.873 364.467 622.029 365.547 622.168 366.616C616.212 370.292 609.491 373.323 602.537 374.364Z" fill="#0B8434"/>
<path d="M574.784 462.44C570.905 462.44 566.075 462.221 560.551 461.519V460.088C566.136 460.811 571.007 461.035 574.895 461.035C576.3 461.035 577.576 461.005 578.712 460.96C578.677 460.981 578.644 461.003 578.609 461.025C577.863 461.501 577.104 461.968 576.333 462.428C575.835 462.436 575.319 462.44 574.784 462.44ZM590.7 447.699C583.203 447.699 572.713 447.008 560.551 444.277V442.816C572.781 445.599 583.313 446.296 590.801 446.296C593.069 446.296 595.057 446.232 596.729 446.143C596.261 446.636 595.788 447.124 595.308 447.608C593.935 447.664 592.393 447.699 590.7 447.699ZM560.551 436.616V435.425L618.412 349.639C618.501 349.905 618.591 350.172 618.676 350.437L602.537 374.364C609.491 373.323 616.212 370.292 622.168 366.616C622.232 367.108 622.292 367.596 622.348 368.083C616.029 371.924 608.88 375.036 601.493 375.912L590.356 392.425C593.195 393.091 595.996 393.388 598.745 393.387C607.687 393.387 616.012 390.244 622.811 386.443C622.776 386.981 622.737 387.516 622.695 388.049C615.845 391.779 607.549 394.797 598.64 394.797C595.653 394.797 592.596 394.459 589.503 393.692L579.113 409.093C584.637 410.451 590.124 410.988 595.349 410.988C604.44 410.988 612.737 409.363 619.052 407.605C618.899 408.125 618.741 408.644 618.579 409.159C612.253 410.865 604.111 412.392 595.223 412.392C589.768 412.392 584.031 411.816 578.263 410.355L566.587 427.667C574.525 429.655 582.111 430.349 588.839 430.349C598.015 430.349 605.597 429.056 610.301 427.985C609.988 428.529 609.671 429.069 609.348 429.607C604.516 430.636 597.3 431.751 588.715 431.751C581.771 431.751 573.929 431.02 565.739 428.924L560.551 436.616Z" fill="#A3F0A1"/>
<path d="M639.612 555.483C639.612 568.048 502.485 578.234 333.333 578.234C164.18 578.234 27.0552 568.048 27.0552 555.483C27.0552 542.917 164.18 532.731 333.333 532.731C502.485 532.731 639.612 542.917 639.612 555.483Z" fill="#EAEAEA" fill-opacity="0.8"/>
<path d="M171.907 543.431H560.551V194.787H171.907V543.431Z" fill="#F5F9FF"/>
<path d="M560.551 236.016H171.907V194.786H560.551V236.016Z" fill="#D0F7D2"/>
<path d="M203.262 215.401C203.262 219.775 199.717 223.32 195.342 223.32C190.969 223.32 187.424 219.775 187.424 215.401C187.424 211.028 190.969 207.481 195.342 207.481C199.717 207.481 203.262 211.028 203.262 215.401Z" fill="#F3654E"/>
<path d="M229.929 215.401C229.929 219.775 226.384 223.32 222.009 223.32C217.636 223.32 214.091 219.775 214.091 215.401C214.091 211.028 217.636 207.481 222.009 207.481C226.384 207.481 229.929 211.028 229.929 215.401Z" fill="#F9AB43"/>
<path d="M256.596 215.401C256.596 219.775 253.051 223.32 248.676 223.32C244.303 223.32 240.757 219.775 240.757 215.401C240.757 211.028 244.303 207.481 248.676 207.481C253.051 207.481 256.596 211.028 256.596 215.401Z" fill="#019A35"/>
<path d="M503.601 355.048C505.464 350.325 502.835 346.461 497.757 346.461H310.691C305.615 346.461 299.939 350.325 298.076 355.048L256.611 460.202C254.748 464.925 257.377 468.789 262.453 468.789H449.521C454.596 468.789 460.273 464.925 462.136 460.202L503.601 355.048Z" fill="#FFCF74"/>
<path d="M247.643 451.236L289.108 346.08C290.971 341.358 296.647 337.493 301.723 337.493H448.573V328.176C448.573 323.098 444.42 318.946 439.344 318.946H373.837C368.76 318.946 362.627 315.296 360.204 310.834L351.285 294.404C348.863 289.942 342.728 286.293 337.652 286.293H253.487C248.411 286.293 244.256 290.446 244.256 295.522V450.592C244.256 455.05 247.461 458.794 251.679 459.641C247.816 458.828 246.016 455.36 247.643 451.236Z" fill="#FFCF74"/>
<path d="M400.624 422.477L395.597 427.502L383.558 415.464L371.518 427.502L366.493 422.477L378.532 410.438L366.493 398.4L371.518 393.373L383.558 405.413L395.597 393.373L400.624 398.4L388.584 410.438L400.624 422.477ZM383.558 375.561C364.297 375.561 348.681 391.177 348.681 410.438C348.681 429.7 364.297 445.314 383.558 445.314C402.82 445.314 418.434 429.7 418.434 410.438C418.434 391.177 402.82 375.561 383.558 375.561Z" fill="#F3654E"/>
<path d="M267.364 544.688C267.364 553.814 226.196 561.213 166.228 561.213C106.261 561.213 65.0933 553.814 65.0933 544.688C65.0933 535.561 106.261 528.162 166.228 528.162C226.196 528.162 267.364 535.561 267.364 544.688Z" fill="#F3654E"/>
<path d="M194.657 337.114H137.8L94.1489 541.069C130.355 548.872 166.228 548.872 166.228 548.872C166.228 548.872 202.103 548.872 238.308 541.069L194.657 337.114Z" fill="#FFCF74"/>
<path d="M194.657 337.115C194.657 339.504 181.929 341.441 166.228 341.441C150.528 341.441 137.8 339.504 137.8 337.115C137.8 334.725 150.528 332.788 166.228 332.788C181.929 332.788 194.657 334.725 194.657 337.115Z" fill="#F3654E"/>
<mask id="mask2_754_102" style="mask-type:luminance" maskUnits="userSpaceOnUse" x="94" y="337" width="145" height="212">
<path d="M194.657 337.114H137.8L94.1489 541.069C130.355 548.872 166.228 548.872 166.228 548.872C166.228 548.872 202.103 548.872 238.308 541.069L194.657 337.114Z" fill="white"/>
</mask>
<g mask="url(#mask2_754_102)">
<path d="M164.991 532.1C106.471 532.1 66.9524 522.32 64.4976 521.696L72.6382 489.634L68.568 505.665L72.6205 489.63C73.4596 489.841 157.806 510.512 260.735 489.461L267.364 521.87C229.883 529.536 194.944 532.1 164.991 532.1Z" fill="#F9AB43"/>
<path d="M164.991 460.129C106.471 460.129 66.9524 450.348 64.4976 449.725L72.6382 417.662L68.568 433.694L72.6205 417.657C73.4596 417.868 157.806 438.538 260.735 417.488L267.364 449.898C229.883 457.565 194.944 460.129 164.991 460.129Z" fill="#F9AB43"/>
<path d="M164.991 388.157C106.471 388.157 66.9524 378.375 64.4976 377.751L72.6382 345.69L68.568 361.721L72.6205 345.686C73.4596 345.897 157.806 366.567 260.735 345.517L267.364 377.926C229.883 385.591 194.944 388.157 164.991 388.157Z" fill="#F9AB43"/>
</g>
<path d="M229.349 542.849C229.35 542.849 229.357 542.848 229.358 542.848C229.356 542.849 229.352 542.849 229.349 542.849ZM229.558 542.812C229.56 542.81 229.56 542.812 229.561 542.81L229.558 542.812ZM229.969 542.736C229.972 542.736 229.973 542.735 229.976 542.735C229.972 542.735 229.972 542.736 229.969 542.736ZM230.026 542.725C230.033 542.724 230.04 542.722 230.046 542.721C230.04 542.722 230.034 542.724 230.026 542.725ZM230.446 542.647C230.45 542.647 230.452 542.647 230.456 542.645C230.453 542.645 230.449 542.647 230.446 542.647ZM230.517 542.633C230.52 542.633 230.52 542.633 230.521 542.633C230.52 542.633 230.518 542.633 230.517 542.633ZM230.586 542.621C230.589 542.621 230.594 542.62 230.597 542.619C230.592 542.62 230.59 542.62 230.586 542.621ZM230.721 542.596C230.724 542.595 230.726 542.595 230.729 542.595C230.726 542.595 230.725 542.595 230.721 542.596ZM230.858 542.569C230.864 542.569 230.865 542.569 230.869 542.568C230.866 542.568 230.862 542.569 230.858 542.569ZM231.068 542.531L231.072 542.529C231.07 542.531 231.069 542.531 231.068 542.531ZM231.13 542.519C231.137 542.517 231.141 542.517 231.148 542.516C231.141 542.516 231.136 542.517 231.13 542.519ZM231.614 542.426C231.618 542.426 231.618 542.426 231.622 542.425C231.62 542.425 231.617 542.426 231.614 542.426ZM231.824 542.386C231.826 542.386 231.824 542.386 231.826 542.386H231.824ZM232.233 542.308C232.237 542.308 232.238 542.307 232.244 542.307C232.241 542.307 232.236 542.308 232.233 542.308ZM232.716 542.214C232.72 542.213 232.721 542.213 232.725 542.213C232.722 542.213 232.718 542.214 232.716 542.214ZM232.854 542.188C232.858 542.186 232.864 542.186 232.868 542.185C232.864 542.185 232.858 542.186 232.854 542.188ZM232.918 542.174C232.925 542.173 232.932 542.173 232.938 542.172C232.93 542.173 232.926 542.173 232.918 542.174ZM232.992 542.161C232.993 542.16 232.994 542.16 232.997 542.16C232.994 542.16 232.993 542.161 232.992 542.161ZM233.062 542.147H233.066C233.065 542.147 233.064 542.147 233.062 542.147ZM233.406 542.08C233.408 542.079 233.408 542.079 233.41 542.079C233.409 542.079 233.408 542.08 233.406 542.08ZM233.47 542.067C233.473 542.067 233.478 542.065 233.48 542.065C233.477 542.065 233.474 542.067 233.47 542.067ZM233.606 542.04C233.613 542.038 233.616 542.038 233.622 542.037C233.617 542.037 233.613 542.038 233.606 542.04ZM233.75 542.012C233.757 542.01 233.765 542.009 233.772 542.008C233.765 542.008 233.757 542.01 233.75 542.012ZM233.809 542C233.82 541.997 233.83 541.996 233.841 541.993C233.83 541.996 233.821 541.997 233.809 542ZM233.869 541.988C233.882 541.985 233.894 541.983 233.908 541.98C233.896 541.983 233.881 541.985 233.869 541.988ZM233.922 541.977C233.936 541.974 233.949 541.972 233.962 541.969C233.948 541.972 233.937 541.974 233.922 541.977ZM234.018 541.959C234.028 541.956 234.033 541.956 234.042 541.953C234.034 541.955 234.025 541.957 234.018 541.959ZM234.23 541.916C234.236 541.914 234.242 541.913 234.248 541.912C234.241 541.913 234.237 541.914 234.23 541.916ZM234.294 541.903C234.304 541.901 234.309 541.9 234.317 541.898C234.31 541.9 234.302 541.901 234.294 541.903ZM234.358 541.891C234.365 541.889 234.373 541.888 234.38 541.886C234.373 541.886 234.364 541.889 234.358 541.891ZM234.434 541.874C234.441 541.873 234.445 541.873 234.452 541.872C234.446 541.873 234.44 541.873 234.434 541.874ZM234.574 541.847C234.578 541.845 234.578 541.847 234.584 541.845C234.58 541.845 234.577 541.847 234.574 541.847ZM234.714 541.819C234.717 541.819 234.724 541.817 234.725 541.816C234.721 541.817 234.718 541.817 234.714 541.819ZM234.785 541.804C234.788 541.804 234.785 541.804 234.788 541.804H234.785ZM234.985 541.764C234.993 541.762 234.996 541.761 235.005 541.76C234.998 541.761 234.992 541.762 234.985 541.764ZM235.057 541.749C235.061 541.748 235.061 541.748 235.065 541.748C235.064 541.748 235.058 541.749 235.057 541.749ZM235.258 541.708C235.262 541.708 235.272 541.705 235.276 541.705C235.27 541.705 235.264 541.707 235.258 541.708ZM235.888 541.58C235.889 541.579 235.893 541.579 235.896 541.577C235.893 541.579 235.89 541.579 235.888 541.58ZM236.085 541.538C236.096 541.536 236.106 541.535 236.117 541.532C236.106 541.535 236.097 541.536 236.085 541.538ZM236.16 541.522C236.161 541.522 236.168 541.521 236.17 541.521C236.166 541.521 236.164 541.522 236.16 541.522ZM236.23 541.508C236.233 541.508 236.236 541.508 236.237 541.507C236.236 541.507 236.232 541.508 236.23 541.508ZM237.062 541.335C237.064 541.335 237.065 541.333 237.066 541.333C237.064 541.335 237.065 541.333 237.062 541.335ZM237.126 541.321C237.129 541.32 237.134 541.32 237.136 541.319C237.132 541.32 237.13 541.32 237.126 541.321ZM237.197 541.305C237.202 541.305 237.21 541.303 237.216 541.303C237.209 541.304 237.204 541.305 237.197 541.305ZM237.266 541.292C237.272 541.291 237.273 541.291 237.277 541.289C237.274 541.289 237.269 541.291 237.266 541.292ZM237.542 541.233C237.544 541.232 237.549 541.232 237.55 541.231C237.548 541.232 237.545 541.232 237.542 541.233ZM237.682 541.203C237.685 541.203 237.692 541.201 237.694 541.2C237.689 541.201 237.688 541.203 237.682 541.203ZM237.741 541.191C237.748 541.189 237.758 541.186 237.765 541.185C237.757 541.186 237.749 541.189 237.741 541.191ZM237.958 541.144C237.964 541.143 237.962 541.144 237.966 541.143C237.964 541.143 237.962 541.144 237.958 541.144Z" fill="#D9ABA7"/>
<path d="M177.819 548.54C180.524 543.297 183.042 537.672 185.35 531.705C201.05 531.096 217.816 529.736 235.367 527.327L238.308 541.069C238.288 541.073 238.27 541.077 238.248 541.081C238.24 541.084 238.231 541.085 238.223 541.088C238.21 541.091 238.196 541.093 238.183 541.096C238.176 541.097 238.168 541.098 238.162 541.101C238.119 541.109 238.078 541.119 238.036 541.128C238.032 541.128 238.026 541.129 238.022 541.131C238.003 541.135 237.986 541.138 237.967 541.143C237.963 541.144 237.964 541.143 237.959 541.144C237.895 541.157 237.83 541.172 237.766 541.185C237.759 541.186 237.748 541.189 237.742 541.191C237.726 541.193 237.711 541.197 237.695 541.2C237.692 541.202 237.686 541.203 237.683 541.203C237.64 541.212 237.595 541.221 237.551 541.231C237.55 541.232 237.544 541.232 237.543 541.233C237.524 541.237 237.504 541.241 237.486 541.245C237.482 541.245 237.48 541.247 237.476 541.247C237.432 541.256 237.388 541.265 237.344 541.274C237.34 541.276 237.338 541.276 237.334 541.277C237.315 541.281 237.296 541.285 237.278 541.29C237.274 541.291 237.272 541.291 237.267 541.292C237.25 541.295 237.232 541.298 237.216 541.303C237.211 541.303 237.203 541.305 237.198 541.305C237.178 541.31 237.156 541.314 237.136 541.319C237.135 541.32 237.13 541.32 237.127 541.321C237.108 541.325 237.086 541.329 237.067 541.333C237.066 541.333 237.064 541.335 237.063 541.335C237.042 541.338 237.019 541.344 236.998 541.348L236.995 541.349C236.88 541.373 236.766 541.397 236.651 541.421H236.65C236.558 541.44 236.468 541.459 236.376 541.479C236.375 541.479 236.374 541.479 236.372 541.479C236.351 541.484 236.328 541.488 236.307 541.493H236.304C236.282 541.497 236.262 541.503 236.238 541.507C236.236 541.508 236.234 541.508 236.231 541.508C236.211 541.512 236.191 541.517 236.171 541.521C236.168 541.521 236.162 541.522 236.16 541.522C236.147 541.525 236.131 541.529 236.118 541.532C236.107 541.535 236.096 541.536 236.086 541.538C236.044 541.547 236.004 541.556 235.962 541.564C235.96 541.564 235.958 541.565 235.956 541.565C235.935 541.569 235.916 541.573 235.896 541.577C235.894 541.579 235.89 541.579 235.888 541.58C235.866 541.584 235.846 541.588 235.824 541.592L235.822 541.593C235.778 541.603 235.735 541.61 235.691 541.62C235.686 541.621 235.682 541.621 235.678 541.623C235.544 541.65 235.411 541.677 235.276 541.705C235.272 541.705 235.263 541.708 235.259 541.708C235.243 541.712 235.226 541.714 235.21 541.719C235.206 541.719 235.2 541.72 235.196 541.721C235.151 541.731 235.11 541.738 235.066 541.748C235.062 541.748 235.062 541.748 235.058 541.749C235.04 541.753 235.023 541.756 235.006 541.76C234.996 541.761 234.994 541.762 234.986 541.764C234.919 541.777 234.855 541.791 234.788 541.804C234.786 541.804 234.788 541.804 234.786 541.804C234.766 541.808 234.746 541.812 234.726 541.816C234.724 541.817 234.718 541.819 234.715 541.819C234.672 541.828 234.627 541.836 234.584 541.845C234.579 541.847 234.579 541.845 234.575 541.847C234.534 541.855 234.494 541.862 234.452 541.872C234.446 541.873 234.442 541.873 234.435 541.874C234.416 541.879 234.399 541.883 234.38 541.886C234.374 541.888 234.366 541.889 234.359 541.891C234.344 541.893 234.332 541.896 234.318 541.898C234.31 541.9 234.304 541.902 234.295 541.903C234.28 541.907 234.264 541.909 234.248 541.912C234.243 541.914 234.236 541.914 234.231 541.916C234.211 541.92 234.19 541.924 234.17 541.928C234.166 541.929 234.162 541.929 234.156 541.931C234.138 541.934 234.122 541.937 234.103 541.941C234.1 541.943 234.096 541.943 234.094 541.943C234.076 541.947 234.059 541.95 234.043 541.953C234.034 541.956 234.028 541.956 234.019 541.959C234 541.961 233.982 541.965 233.963 541.969C233.95 541.972 233.936 541.974 233.923 541.977C233.919 541.979 233.914 541.979 233.908 541.98C233.895 541.983 233.883 541.985 233.87 541.988C233.86 541.989 233.851 541.992 233.842 541.993C233.831 541.996 233.82 541.997 233.81 542C233.796 542.003 233.784 542.005 233.772 542.008C233.766 542.009 233.758 542.01 233.751 542.012C233.73 542.016 233.711 542.02 233.69 542.024C233.684 542.024 233.682 542.025 233.678 542.026C233.66 542.029 233.64 542.033 233.623 542.037C233.616 542.038 233.614 542.038 233.607 542.04C233.587 542.044 233.567 542.048 233.547 542.052C233.526 542.056 233.502 542.061 233.48 542.065C233.479 542.065 233.474 542.067 233.471 542.067C233.45 542.071 233.432 542.074 233.411 542.079C233.408 542.079 233.408 542.079 233.407 542.08C233.388 542.084 233.367 542.088 233.348 542.091C233.343 542.092 233.342 542.092 233.338 542.093C233.248 542.11 233.156 542.129 233.067 542.147H233.063C233.04 542.152 233.02 542.156 232.998 542.16C232.995 542.16 232.994 542.16 232.992 542.161C232.975 542.164 232.956 542.168 232.939 542.172C232.932 542.173 232.926 542.173 232.919 542.174C232.903 542.179 232.886 542.181 232.868 542.185C232.864 542.186 232.859 542.186 232.855 542.188C232.835 542.192 232.812 542.196 232.792 542.2C232.788 542.202 232.784 542.202 232.78 542.203C232.762 542.207 232.744 542.209 232.726 542.214C232.722 542.214 232.72 542.214 232.716 542.214C232.559 542.245 232.402 542.276 232.244 542.307C232.239 542.307 232.238 542.308 232.234 542.308C232.098 542.335 231.963 542.36 231.827 542.386C231.824 542.386 231.827 542.386 231.824 542.386C231.78 542.396 231.736 542.404 231.691 542.412C231.687 542.414 231.683 542.414 231.678 542.414C231.659 542.419 231.642 542.421 231.623 542.425C231.619 542.426 231.619 542.426 231.615 542.426C231.547 542.44 231.483 542.452 231.416 542.465C231.414 542.465 231.411 542.465 231.408 542.467C231.342 542.479 231.275 542.492 231.208 542.504H231.206C231.186 542.508 231.168 542.512 231.148 542.516C231.142 542.517 231.138 542.517 231.131 542.519C231.112 542.522 231.091 542.526 231.072 542.529L231.068 542.531C231.002 542.543 230.938 542.555 230.87 542.568C230.866 542.569 230.864 542.569 230.859 542.569C230.816 542.579 230.772 542.586 230.73 542.595C230.727 542.595 230.724 542.595 230.722 542.596C230.68 542.604 230.639 542.612 230.598 542.619C230.595 542.62 230.59 542.621 230.587 542.621C230.566 542.625 230.543 542.629 230.522 542.633C230.52 542.633 230.52 542.633 230.518 542.633C230.498 542.637 230.476 542.641 230.456 542.645C230.452 542.647 230.451 542.647 230.447 542.647C230.359 542.664 230.271 542.68 230.182 542.696C230.179 542.697 230.178 542.697 230.175 542.697C230.134 542.705 230.088 542.713 230.047 542.721C230.04 542.722 230.034 542.724 230.027 542.725C230.01 542.728 229.992 542.732 229.976 542.735C229.974 542.735 229.972 542.736 229.97 542.736C229.903 542.748 229.835 542.761 229.768 542.773H229.764C229.696 542.786 229.631 542.798 229.562 542.81C229.56 542.812 229.56 542.81 229.559 542.812C229.542 542.814 229.524 542.817 229.508 542.821C229.499 542.822 229.49 542.824 229.482 542.825C229.44 542.833 229.4 542.84 229.359 542.848C229.358 542.848 229.351 542.849 229.35 542.849C229.328 542.853 229.308 542.857 229.287 542.861H229.286C208.896 546.585 189.575 548.002 177.819 548.54ZM195.311 498.013C197.978 485.707 199.88 472.593 200.902 458.897C207.246 458.46 213.735 457.897 220.356 457.188L228.419 494.861C217.006 496.352 205.932 497.371 195.311 498.013ZM201.611 425.619C201.195 412.264 199.947 399.365 197.968 387.119C200.375 386.967 202.802 386.797 205.25 386.608L213.383 424.608C209.406 424.999 205.482 425.333 201.611 425.619ZM190.49 354.336C189.019 349.468 187.422 344.773 185.706 340.267C191.216 339.477 194.658 338.357 194.658 337.115L198.246 353.883C195.638 354.056 193.044 354.207 190.49 354.336Z" fill="#E5C178"/>
<path d="M185.705 340.267C185.301 339.205 184.889 338.155 184.473 337.115H194.657C194.657 338.357 191.216 339.477 185.705 340.267Z" fill="#D9ABA7"/>
<path d="M185.349 531.705C189.332 521.413 192.69 510.104 195.31 498.013C205.932 497.37 217.005 496.352 228.418 494.861L235.366 527.326C217.816 529.736 201.049 531.096 185.349 531.705Z" fill="#E0A14C"/>
<path d="M200.901 458.897C201.469 451.272 201.764 443.464 201.764 435.522C201.764 432.197 201.712 428.892 201.611 425.618C205.481 425.333 209.405 424.998 213.383 424.608L220.356 457.188C213.735 457.897 207.245 458.46 200.901 458.897Z" fill="#E0A14C"/>
<path d="M197.968 387.119C196.099 375.548 193.576 364.563 190.489 354.336C193.044 354.207 195.637 354.056 198.245 353.883L205.249 386.608C202.801 386.797 200.375 386.967 197.968 387.119Z" fill="#E0A14C"/>
<path d="M122.41 497.03C119.649 496.788 116.982 496.53 114.417 496.261C116.671 485.386 118.926 474.512 121.18 463.638C121.544 461.884 121.908 460.13 122.271 458.377C124.876 458.592 127.551 458.793 130.299 458.977C129.514 462.764 128.729 466.55 127.944 470.337C126.099 479.234 124.254 488.133 122.41 497.03ZM137.11 426.124C134.356 425.965 131.678 425.789 129.067 425.596C129.472 423.641 129.878 421.686 130.283 419.732C132.516 408.957 134.75 398.182 136.984 387.408C139.618 387.549 142.314 387.674 145.062 387.778C145 388.069 144.94 388.36 144.88 388.649C142.289 401.141 139.7 413.632 137.11 426.124Z" fill="#FFDD9E"/>
<path d="M113.466 524.614C111.188 524.614 108.891 522.914 109.487 520.04L109.541 519.782C110.524 513.632 112.084 507.517 113.348 501.418C113.704 499.7 114.061 497.98 114.417 496.261C116.982 496.53 119.649 496.788 122.41 497.03C121.759 500.17 121.108 503.312 120.456 506.452C119.418 511.464 118.379 516.476 117.34 521.485C116.892 523.646 115.184 524.614 113.466 524.614Z" fill="#FBC47C"/>
<path d="M130.3 458.977C127.551 458.793 124.876 458.592 122.271 458.377C124.537 447.449 126.802 436.524 129.067 425.596C131.678 425.789 134.356 425.965 137.111 426.124C137.089 426.225 137.068 426.329 137.047 426.43C134.797 437.28 132.549 448.128 130.3 458.977Z" fill="#FBC47C"/>
<path d="M145.063 387.778C142.315 387.674 139.619 387.549 136.984 387.408C137.247 386.144 137.508 384.881 137.771 383.617C138.809 378.605 139.848 373.593 140.888 368.582C141.336 366.421 143.043 365.453 144.761 365.453C147.04 365.453 149.336 367.154 148.741 370.028L148.687 370.286C147.751 376.145 146.291 381.969 145.063 387.778Z" fill="#FBC47C"/>
<path d="M542.862 500.24L354.339 554.062L351.032 542.481L539.555 488.66L542.862 500.24Z" fill="#696666"/>
<path d="M542.861 500.24L456.891 524.784L453.584 513.204L539.555 488.66L542.861 500.24Z" fill="#F3654E"/>
<path d="M599.24 477.882C608.389 509.932 589.825 543.33 557.776 552.479C525.727 561.63 492.328 543.066 483.179 511.017C474.028 478.968 492.592 445.569 524.641 436.42C556.692 427.269 590.089 445.833 599.24 477.882Z" fill="#F3654E"/>
<path d="M587.921 481.113C595.287 506.913 580.344 533.797 554.545 541.163C528.747 548.529 501.861 533.585 494.496 507.787C487.131 481.987 502.075 455.103 527.872 447.737C553.672 440.372 580.556 455.315 587.921 481.113Z" fill="#D0F7D2"/>
<path d="M496.231 192.589L438.469 175.077L403.736 289.642L493.489 316.853L518.796 233.38L496.231 192.589Z" fill="#B2F4C8"/>
<path d="M490.396 237.873L486.268 230.153L467.775 240.041L457.885 221.549L450.167 225.676L460.056 244.169L441.562 254.059L445.69 261.777L464.184 251.888L474.073 270.381L481.792 266.253L471.903 247.761L490.396 237.873Z" fill="#90E4AC"/>
<path d="M342.952 114.144L284.308 128.429L312.64 244.743L403.763 222.545L383.12 137.8L342.952 114.144Z" fill="#B2F4C8"/>
<path d="M360.948 156.106L353.471 151.557L342.572 169.474L324.653 158.576L320.105 166.054L338.023 176.952L327.124 194.868L334.603 199.417L345.501 181.501L363.417 192.398L367.967 184.92L350.049 174.022L360.948 156.106Z" fill="#90E4AC"/>
<path d="M548.449 124.617H533.541V109.709H528.236V124.617H513.329V129.922H528.236V144.829H533.541V129.922H548.449V124.617Z" fill="#B2F4C8"/>
<path d="M581.837 175.911H573.716V167.791H570.827V175.911H562.707V178.8H570.827V186.92H573.716V178.8H581.837V175.911Z" fill="#B2F4C8"/>
<path d="M492.229 161.742H482.394V151.91H478.896V161.742H469.062V165.242H478.896V175.076H482.394V165.242H492.229V161.742Z" fill="#B2F4C8"/>
<path d="M119.95 160.209H105.042V145.302H99.7359V160.209H84.8296V165.516H99.7359V180.422H105.042V165.516H119.95V160.209Z" fill="#B2F4C8"/>
<path d="M185.018 151.312H176.896V143.192H174.007V151.312H165.888V154.201H174.007V162.321H176.896V154.201H185.018V151.312Z" fill="#B2F4C8"/>
<path d="M135.58 217.529H125.746V207.696H122.247V217.529H112.414V221.029H122.247V230.861H125.746V221.029H135.58V217.529Z" fill="#B2F4C8"/>
<path d="M462.04 99.9398C462.04 101.725 460.592 103.172 458.808 103.172C457.024 103.172 455.577 101.725 455.577 99.9398C455.577 98.1558 457.024 96.7092 458.808 96.7092C460.592 96.7092 462.04 98.1558 462.04 99.9398Z" fill="#90E4AC"/>
<path d="M607.976 216.137C607.976 219.517 605.237 222.256 601.857 222.256C598.476 222.256 595.737 219.517 595.737 216.137C595.737 212.757 598.476 210.017 601.857 210.017C605.237 210.017 607.976 212.757 607.976 216.137Z" fill="#90E4AC"/>
<path d="M414.258 133.644C414.258 135.428 412.811 136.875 411.027 136.875C409.242 136.875 407.795 135.428 407.795 133.644C407.795 131.859 409.242 130.412 411.027 130.412C412.811 130.412 414.258 131.859 414.258 133.644Z" fill="#90E4AC"/>
<path d="M230.212 99.94C230.212 103.321 227.472 106.06 224.092 106.06C220.712 106.06 217.972 103.321 217.972 99.94C217.972 96.5613 220.712 93.8214 224.092 93.8214C227.472 93.8214 230.212 96.5613 230.212 99.94Z" fill="#90E4AC"/>
<path d="M253.991 164.826C253.991 166.61 252.544 168.057 250.758 168.057C248.973 168.057 247.528 166.61 247.528 164.826C247.528 163.041 248.973 161.594 250.758 161.594C252.544 161.594 253.991 163.041 253.991 164.826Z" fill="#90E4AC"/>
<path d="M65.1534 227.409C65.1534 229.193 63.7071 230.641 61.9216 230.641C60.1372 230.641 58.6904 229.193 58.6904 227.409C58.6904 225.624 60.1372 224.177 61.9216 224.177C63.7071 224.177 65.1534 225.624 65.1534 227.409Z" fill="#90E4AC"/>
</svg>
